<svg xmlns="http://www.w3.org/2000/svg" viewBox="0 0 900 60" width="900" height="60">
  <defs>
    <linearGradient id="anBg" x1="0%" y1="0%" x2="100%" y2="0%">
      <stop offset="0%" style="stop-color:#0a0a0f"/>
      <stop offset="50%" style="stop-color:#12121f"/>
      <stop offset="100%" style="stop-color:#0a0a0f"/>
    </linearGradient>
    <linearGradient id="anAccent" x1="0%" y1="0%" x2="100%" y2="0%">
      <stop offset="0%" style="stop-color:#8b2252"/>
      <stop offset="50%" style="stop-color:#c0392b"/>
      <stop offset="100%" style="stop-color:#d4a574"/>
    </linearGradient>
  </defs>
  <rect width="900" height="60" fill="url(#anBg)"/>
  
  <g stroke="#c0392b" stroke-width="1.2" fill="none" opacity="0.5">
    <path d="M20 8 L20 4 L40 4"/>
    <path d="M880 8 L880 4 L860 4"/>
    <path d="M20 52 L20 56 L40 56"/>
    <path d="M880 52 L880 56 L860 56"/>
  </g>
  
  <!-- Bar chart decoration -->
  <g fill="#c0392b" opacity="0.15">
    <rect x="100" y="35" width="6" height="15"/>
    <rect x="110" y="25" width="6" height="25"/>
    <rect x="120" y="30" width="6" height="20"/>
    <rect x="130" y="20" width="6" height="30"/>
    
    <rect x="764" y="35" width="6" height="15"/>
    <rect x="774" y="25" width="6" height="25"/>
    <rect x="784" y="30" width="6" height="20"/>
    <rect x="794" y="20" width="6" height="30"/>
  </g>
  
  <text x="450" y="25" font-family="'Noto Sans JP', 'Hiragino Kaku Gothic ProN', sans-serif" font-size="13" fill="#d4a574" text-anchor="middle" letter-spacing="6" opacity="0.8">
    績 ─ GitHub Analytics
  </text>
  <text x="450" y="43" font-family="monospace" font-size="9" fill="#555" text-anchor="middle" letter-spacing="1">
    活動記録 ─ Activity Record
  </text>
  
  <line x1="350" y1="54" x2="550" y2="54" stroke="url(#anAccent)" stroke-width="0.5" opacity="0.4"/>
</svg>
