<svg xmlns="http://www.w3.org/2000/svg" viewBox="0 0 800 80" width="800" height="80">
  <defs>
    <linearGradient id="vhBg" x1="0%" y1="0%" x2="100%" y2="0%">
      <stop offset="0%" style="stop-color:#0a0a0f;stop-opacity:0"/>
      <stop offset="50%" style="stop-color:#12121f"/>
      <stop offset="100%" style="stop-color:#0a0a0f;stop-opacity:0"/>
    </linearGradient>
    <linearGradient id="vhAc" x1="0%" y1="0%" x2="100%" y2="0%">
      <stop offset="0%" style="stop-color:#c0392b;stop-opacity:0"/>
      <stop offset="50%" style="stop-color:#d4a574"/>
      <stop offset="100%" style="stop-color:#c0392b;stop-opacity:0"/>
    </linearGradient>
  </defs>
  <rect x="0" y="0" width="800" height="80" fill="url(#vhBg)"/>
  <g stroke="#c0392b" stroke-width="1.2" fill="none" opacity="0.4">
    <path d="M20 15 L20 5 L30 5"/>
    <path d="M780 15 L780 5 L770 5"/>
    <path d="M20 65 L20 75 L30 75"/>
    <path d="M780 65 L780 75 L770 75"/>
  </g>
  <g opacity="0.12" fill="none" stroke="#d4a574" stroke-width="0.8">
    <path d="M120 25 L140 25 L140 55 L120 55"/>
    <circle cx="130" cy="40" r="4"/>
    <line x1="126" y1="40" x2="134" y2="40"/>
    <line x1="130" y1="36" x2="130" y2="44"/>
    <path d="M660 25 L680 25 L680 55 L660 55"/>
    <circle cx="670" cy="40" r="4"/>
    <line x1="666" y1="40" x2="674" y2="40"/>
    <line x1="670" y1="36" x2="670" y2="44"/>
  </g>
  <text x="400" y="38" font-family="'Noto Sans JP', 'Hiragino Kaku Gothic ProN', sans-serif" font-size="22" fill="#d4a574" text-anchor="middle" letter-spacing="8">志 ─ Vision Map</text>
  <text x="400" y="58" font-family="'Courier New', monospace" font-size="10" fill="#555" text-anchor="middle" letter-spacing="4">未来への道 ─ Path to the Future</text>
  <line x1="200" y1="70" x2="600" y2="70" stroke="url(#vhAc)" stroke-width="0.5" opacity="0.3"/>
</svg>
